<mxfile host="app.diagrams.net" modified="2022-08-24T18:51:49.882Z" agent="5.0 (Windows NT 6.1; Win64; x64) AppleWebKit/537.36 (KHTML, like Gecko) Chrome/104.0.0.0 Safari/537.36" etag="H9Lh9Va8g81xaAEHBUvi" version="20.2.7" type="github">
  <diagram id="xz9qLdkSwO25bBrm6wnm" name="Página-1">
    <mxGraphModel dx="868" dy="393" grid="1" gridSize="10" guides="1" tooltips="1" connect="1" arrows="1" fold="1" page="1" pageScale="1" pageWidth="827" pageHeight="1169" math="0" shadow="0">
      <root>
        <mxCell id="0" />
        <mxCell id="1" parent="0" />
        <mxCell id="TR0QHXEJedXVdYTKlSn2-9" style="edgeStyle=orthogonalEdgeStyle;rounded=0;orthogonalLoop=1;jettySize=auto;html=1;entryX=0.025;entryY=0.675;entryDx=0;entryDy=0;entryPerimeter=0;fontFamily=Times New Roman;" parent="1" source="TR0QHXEJedXVdYTKlSn2-1" target="TR0QHXEJedXVdYTKlSn2-4" edge="1">
          <mxGeometry relative="1" as="geometry">
            <Array as="points">
              <mxPoint x="431" y="90" />
            </Array>
          </mxGeometry>
        </mxCell>
        <mxCell id="TR0QHXEJedXVdYTKlSn2-1" value="Pessoa" style="rounded=0;whiteSpace=wrap;html=1;fillColor=#dae8fc;strokeColor=#6c8ebf;fontFamily=Times New Roman;" parent="1" vertex="1">
          <mxGeometry x="240" y="70" width="150" height="80" as="geometry" />
        </mxCell>
        <mxCell id="TR0QHXEJedXVdYTKlSn2-10" style="edgeStyle=orthogonalEdgeStyle;rounded=0;orthogonalLoop=1;jettySize=auto;html=1;fontFamily=Times New Roman;" parent="1" source="TR0QHXEJedXVdYTKlSn2-2" target="TR0QHXEJedXVdYTKlSn2-4" edge="1">
          <mxGeometry relative="1" as="geometry">
            <Array as="points">
              <mxPoint x="460" y="50" />
              <mxPoint x="460" y="250" />
            </Array>
          </mxGeometry>
        </mxCell>
        <mxCell id="TR0QHXEJedXVdYTKlSn2-2" value="Banco" style="rounded=0;whiteSpace=wrap;html=1;fontFamily=Times New Roman;fillColor=#f8cecc;strokeColor=#b85450;" parent="1" vertex="1">
          <mxGeometry x="540" y="20" width="120" height="60" as="geometry" />
        </mxCell>
        <mxCell id="CvSU5lqTS-btfgZHE2km-1" style="edgeStyle=orthogonalEdgeStyle;rounded=0;orthogonalLoop=1;jettySize=auto;html=1;entryX=1;entryY=0.5;entryDx=0;entryDy=0;fontFamily=Times New Roman;" edge="1" parent="1" source="TR0QHXEJedXVdYTKlSn2-3" target="TR0QHXEJedXVdYTKlSn2-4">
          <mxGeometry relative="1" as="geometry" />
        </mxCell>
        <mxCell id="TR0QHXEJedXVdYTKlSn2-3" value="Company" style="rounded=0;whiteSpace=wrap;html=1;fontFamily=Times New Roman;fillColor=#e1d5e7;strokeColor=#9673a6;" parent="1" vertex="1">
          <mxGeometry x="780" y="130" width="120" height="60" as="geometry" />
        </mxCell>
        <mxCell id="TR0QHXEJedXVdYTKlSn2-13" style="edgeStyle=orthogonalEdgeStyle;rounded=0;orthogonalLoop=1;jettySize=auto;html=1;exitX=0.5;exitY=1;exitDx=0;exitDy=0;entryX=0.5;entryY=0;entryDx=0;entryDy=0;fontFamily=Times New Roman;" parent="1" source="TR0QHXEJedXVdYTKlSn2-4" target="TR0QHXEJedXVdYTKlSn2-12" edge="1">
          <mxGeometry relative="1" as="geometry" />
        </mxCell>
        <mxCell id="TR0QHXEJedXVdYTKlSn2-4" value="U" style="ellipse;whiteSpace=wrap;html=1;aspect=fixed;fontFamily=Times New Roman;fillColor=#d80073;fontColor=#ffffff;strokeColor=#A50040;" parent="1" vertex="1">
          <mxGeometry x="440" y="140" width="40" height="40" as="geometry" />
        </mxCell>
        <mxCell id="TR0QHXEJedXVdYTKlSn2-12" value="Owner" style="rounded=0;whiteSpace=wrap;html=1;fontFamily=Times New Roman;fillColor=#cdeb8b;strokeColor=#36393d;" parent="1" vertex="1">
          <mxGeometry x="400" y="260" width="120" height="60" as="geometry" />
        </mxCell>
        <mxCell id="TR0QHXEJedXVdYTKlSn2-18" style="edgeStyle=orthogonalEdgeStyle;rounded=0;orthogonalLoop=1;jettySize=auto;html=1;entryX=0.008;entryY=0.15;entryDx=0;entryDy=0;entryPerimeter=0;fontFamily=Times New Roman;" parent="1" source="TR0QHXEJedXVdYTKlSn2-14" target="TR0QHXEJedXVdYTKlSn2-1" edge="1">
          <mxGeometry relative="1" as="geometry">
            <Array as="points">
              <mxPoint x="201" y="30" />
            </Array>
          </mxGeometry>
        </mxCell>
        <mxCell id="TR0QHXEJedXVdYTKlSn2-14" value="Licença" style="ellipse;whiteSpace=wrap;html=1;align=center;fontStyle=4;fontFamily=Times New Roman;fillColor=#cce5ff;strokeColor=#36393d;" parent="1" vertex="1">
          <mxGeometry x="10" y="10" width="100" height="40" as="geometry" />
        </mxCell>
        <mxCell id="TR0QHXEJedXVdYTKlSn2-19" style="edgeStyle=orthogonalEdgeStyle;rounded=0;orthogonalLoop=1;jettySize=auto;html=1;entryX=0.017;entryY=0.383;entryDx=0;entryDy=0;entryPerimeter=0;fontFamily=Times New Roman;" parent="1" source="TR0QHXEJedXVdYTKlSn2-15" target="TR0QHXEJedXVdYTKlSn2-1" edge="1">
          <mxGeometry relative="1" as="geometry" />
        </mxCell>
        <mxCell id="TR0QHXEJedXVdYTKlSn2-15" value="CPF" style="ellipse;whiteSpace=wrap;html=1;align=center;fontStyle=4;fontFamily=Times New Roman;fillColor=#cce5ff;strokeColor=#36393d;" parent="1" vertex="1">
          <mxGeometry x="10" y="60" width="100" height="40" as="geometry" />
        </mxCell>
        <mxCell id="TR0QHXEJedXVdYTKlSn2-22" style="edgeStyle=orthogonalEdgeStyle;rounded=0;orthogonalLoop=1;jettySize=auto;html=1;entryX=0;entryY=0.625;entryDx=0;entryDy=0;fontFamily=Times New Roman;entryPerimeter=0;" parent="1" source="TR0QHXEJedXVdYTKlSn2-16" target="TR0QHXEJedXVdYTKlSn2-1" edge="1">
          <mxGeometry relative="1" as="geometry" />
        </mxCell>
        <mxCell id="TR0QHXEJedXVdYTKlSn2-16" value="Nome" style="ellipse;whiteSpace=wrap;html=1;align=center;fontFamily=Times New Roman;fillColor=#cce5ff;strokeColor=#36393d;" parent="1" vertex="1">
          <mxGeometry x="10" y="110" width="100" height="40" as="geometry" />
        </mxCell>
        <mxCell id="TR0QHXEJedXVdYTKlSn2-21" style="edgeStyle=orthogonalEdgeStyle;rounded=0;orthogonalLoop=1;jettySize=auto;html=1;fontFamily=Times New Roman;entryX=0;entryY=0.863;entryDx=0;entryDy=0;entryPerimeter=0;" parent="1" source="TR0QHXEJedXVdYTKlSn2-17" target="TR0QHXEJedXVdYTKlSn2-1" edge="1">
          <mxGeometry relative="1" as="geometry">
            <mxPoint x="200" y="140" as="targetPoint" />
          </mxGeometry>
        </mxCell>
        <mxCell id="TR0QHXEJedXVdYTKlSn2-17" value="Endereço" style="ellipse;whiteSpace=wrap;html=1;align=center;fontFamily=Times New Roman;fillColor=#cce5ff;strokeColor=#36393d;" parent="1" vertex="1">
          <mxGeometry x="10" y="160" width="100" height="40" as="geometry" />
        </mxCell>
        <mxCell id="TR0QHXEJedXVdYTKlSn2-25" style="edgeStyle=orthogonalEdgeStyle;rounded=0;orthogonalLoop=1;jettySize=auto;html=1;entryX=1.025;entryY=0.15;entryDx=0;entryDy=0;entryPerimeter=0;fontFamily=Times New Roman;" parent="1" source="TR0QHXEJedXVdYTKlSn2-23" target="TR0QHXEJedXVdYTKlSn2-2" edge="1">
          <mxGeometry relative="1" as="geometry" />
        </mxCell>
        <mxCell id="TR0QHXEJedXVdYTKlSn2-23" value="Nome do Banco" style="ellipse;whiteSpace=wrap;html=1;align=center;fontStyle=4;fontFamily=Times New Roman;fillColor=#ffcccc;strokeColor=#36393d;" parent="1" vertex="1">
          <mxGeometry x="700" width="100" height="40" as="geometry" />
        </mxCell>
        <mxCell id="TR0QHXEJedXVdYTKlSn2-26" style="edgeStyle=orthogonalEdgeStyle;rounded=0;orthogonalLoop=1;jettySize=auto;html=1;entryX=1;entryY=0.75;entryDx=0;entryDy=0;fontFamily=Times New Roman;" parent="1" source="TR0QHXEJedXVdYTKlSn2-24" target="TR0QHXEJedXVdYTKlSn2-2" edge="1">
          <mxGeometry relative="1" as="geometry" />
        </mxCell>
        <mxCell id="TR0QHXEJedXVdYTKlSn2-24" value="Endereço B" style="ellipse;whiteSpace=wrap;html=1;align=center;fontFamily=Times New Roman;fillColor=#ffcccc;strokeColor=#36393d;" parent="1" vertex="1">
          <mxGeometry x="700" y="60" width="100" height="40" as="geometry" />
        </mxCell>
        <mxCell id="TR0QHXEJedXVdYTKlSn2-31" style="edgeStyle=orthogonalEdgeStyle;rounded=0;orthogonalLoop=1;jettySize=auto;html=1;entryX=0.08;entryY=1.017;entryDx=0;entryDy=0;entryPerimeter=0;fontFamily=Times New Roman;" parent="1" source="TR0QHXEJedXVdYTKlSn2-28" target="TR0QHXEJedXVdYTKlSn2-3" edge="1">
          <mxGeometry relative="1" as="geometry">
            <Array as="points">
              <mxPoint x="790" y="340" />
            </Array>
          </mxGeometry>
        </mxCell>
        <mxCell id="TR0QHXEJedXVdYTKlSn2-28" value="Endereço C" style="ellipse;whiteSpace=wrap;html=1;align=center;fontFamily=Times New Roman;fillColor=#e1d5e7;strokeColor=#9673a6;" parent="1" vertex="1">
          <mxGeometry x="827" y="320" width="100" height="40" as="geometry" />
        </mxCell>
        <mxCell id="TR0QHXEJedXVdYTKlSn2-30" style="edgeStyle=orthogonalEdgeStyle;rounded=0;orthogonalLoop=1;jettySize=auto;html=1;entryX=0.75;entryY=1;entryDx=0;entryDy=0;fontFamily=Times New Roman;" parent="1" source="TR0QHXEJedXVdYTKlSn2-29" target="TR0QHXEJedXVdYTKlSn2-3" edge="1">
          <mxGeometry relative="1" as="geometry" />
        </mxCell>
        <mxCell id="TR0QHXEJedXVdYTKlSn2-29" value="Nome Company" style="ellipse;whiteSpace=wrap;html=1;align=center;fontStyle=4;fontFamily=Times New Roman;fillColor=#e1d5e7;strokeColor=#9673a6;" parent="1" vertex="1">
          <mxGeometry x="820" y="230" width="100" height="40" as="geometry" />
        </mxCell>
      </root>
    </mxGraphModel>
  </diagram>
</mxfile>
